<svg xmlns="http://www.w3.org/2000/svg" xmlns:xlink="http://www.w3.org/1999/xlink" width="701" height="715" viewBox="0 0 701 715">
  <defs>
    <filter id="Retângulo_1" x="-10" y="-7" width="721" height="735" filterUnits="userSpaceOnUse">
      <feOffset dy="3" input="SourceAlpha"/>
      <feGaussianBlur stdDeviation="3" result="blur"/>
      <feFlood flood-opacity="0.161"/>
      <feComposite operator="in" in2="blur"/>
      <feComposite in="SourceGraphic"/>
    </filter>
    <clipPath id="clip-Prancheta_1">
      <rect width="701" height="715"/>
    </clipPath>
  </defs>
  <g id="Prancheta_1" data-name="Prancheta – 1" clip-path="url(#clip-Prancheta_1)">
    <rect width="701" height="715" fill="#fff"/>
    <g transform="matrix(1, 0, 0, 1, 0, 0)" filter="url(#Retângulo_1)">
      <g id="Retângulo_1-2" data-name="Retângulo 1" fill="none" stroke="#707070" stroke-linecap="round" stroke-linejoin="round" stroke-width="1">
        <rect width="701" height="715" stroke="none"/>
        <rect x="-0.5" y="-0.5" width="702" height="716" fill="none"/>
      </g>
    </g>
    <path id="Caminho_8" data-name="Caminho 8" d="M7,0H702a3,3,0,0,1,3,3V27H4V3A3,3,0,0,1,7,0Z" transform="translate(-4)" fill="#3b3b3b" stroke="#707070" stroke-width="1"/>
    <path id="Caminho_9" data-name="Caminho 9" d="M25,21a7,7,0,1,0-7-7A7,7,0,0,0,25,21Z" transform="translate(-4)" fill="#ff6259" stroke="#707070" stroke-width="1"/>
    <path id="Caminho_10" data-name="Caminho 10" d="M46,21a7,7,0,1,0-7-7A7,7,0,0,0,46,21Z" transform="translate(-4)" fill="#ffc13d" stroke="#707070" stroke-width="1"/>
    <path id="Caminho_11" data-name="Caminho 11" d="M67,21a7,7,0,1,0-7-7A7,7,0,0,0,67,21Z" transform="translate(-4)" fill="#17c94b" stroke="#707070" stroke-width="1"/>
    <path id="Caminho_12" data-name="Caminho 12" d="M667.988,78.53l-3.607-5.411,3.607-5.411a.974.974,0,0,0,.156-.36.993.993,0,0,0-1.809-.74l-3.974,5.962a.994.994,0,0,0,0,1.1l3.974,5.962a.993.993,0,0,0,.827.443.97.97,0,0,0,.55-.169.992.992,0,0,0,.276-1.376Z" transform="translate(-4)" fill="#4b81fe" stroke="#707070" stroke-width="1"/>
    <path id="Caminho_13" data-name="Caminho 13" d="M677.447,64.242a1,1,0,0,0-1.28.58l-5.962,15.9a1,1,0,0,0-.064.383.988.988,0,0,0,.088.378.99.99,0,0,0,.556.519.98.98,0,0,0,.35.064,1,1,0,0,0,.93-.644l5.962-15.9a1,1,0,0,0,.064-.383.988.988,0,0,0-.088-.378.99.99,0,0,0-.556-.519Z" transform="translate(-4)" fill="#4b81fe" stroke="#707070" stroke-width="1"/>
    <path id="Caminho_14" data-name="Caminho 14" d="M685.876,72.57,681.9,66.608a.993.993,0,0,0-1.809.74.976.976,0,0,0,.156.36l3.607,5.411-3.607,5.411a.994.994,0,0,0,1.653,1.1l3.975-5.962a1,1,0,0,0,0-1.1Z" transform="translate(-4)" fill="#4b81fe" stroke="#707070" stroke-width="1"/>
    <path id="Caminho_15" data-name="Caminho 15" d="M691.008,44.306h-21.86a1.017,1.017,0,0,0-.386.078.684.684,0,0,0-.1.068,1.072,1.072,0,0,0-.219.145L656.521,56.519a.955.955,0,0,0-.107.161.92.92,0,0,0-.1.159,1.011,1.011,0,0,0-.077.384V91.006a.994.994,0,0,0,.994.994h33.782a.994.994,0,0,0,.994-.994V45.3a.994.994,0,0,0-.994-.994ZM668.155,47.7v8.531h-8.532Zm21.86,42.314h-31.8v-31.8h10.93a.994.994,0,0,0,.994-.994V46.293h19.875V90.012Z" transform="translate(-4)" fill="#4b81fe" stroke="#707070" stroke-width="1"/>
    <text id="const_profile_name:_Pedro_Rodrigues_websiteURL:_linkedin.com_in_pedro-goulart-rodrigues_email:_pedrorodriguesgfx_gmail.com_aboutMe:_Currently_studying_Systems_Analysis_at_UniRitter_and_working_at_RCI_Consulting" data-name="const profile = { 
    name: &apos;Pedro Rodrigues&apos;,  
    websiteURL: &apos;linkedin.com/in/pedro-goulart-rodrigues/&apos;, 
    email: &apos;pedrorodriguesgfx@gmail.com&apos;,  
    aboutMe: &apos;Currently studying Systems Analysis at UniRitter and&apos; 
    + &apos;working at RCI Consulting" transform="translate(35 149)" fill="#d40000" font-size="20" font-family="SegoeUI, Segoe UI"><tspan x="0" y="22">const </tspan><tspan y="22" fill="#707070">profile = { </tspan><tspan fill="#707070"><tspan x="0" y="49" xml:space="preserve">    </tspan><tspan y="49" fill="#00b9ff">name</tspan><tspan y="49" xml:space="preserve">: &apos;Pedro Rodrigues&apos;,  </tspan><tspan x="0" y="76" xml:space="preserve">    </tspan><tspan y="76" fill="#00b9ff">websiteURL</tspan><tspan y="76">: &apos;linkedin.com/in/pedro-goulart-rodrigues/&apos;, </tspan><tspan x="0" y="103" xml:space="preserve">    </tspan><tspan y="103" fill="#00b9ff">email</tspan><tspan y="103" xml:space="preserve">: &apos;pedrorodriguesgfx@gmail.com&apos;,  </tspan><tspan x="0" y="130" xml:space="preserve">    </tspan><tspan y="130" fill="#00b9ff">aboutMe</tspan><tspan y="130">: &apos;Currently studying Systems Analysis at UniRitter and&apos; </tspan><tspan x="0" y="157" xml:space="preserve">    + &apos;working at RCI Consulting as a Business Analysis Developer and&apos;</tspan><tspan x="0" y="184" xml:space="preserve">    + &apos;Always looking to learn about new technologies&apos;,</tspan><tspan x="0" y="211" xml:space="preserve">    </tspan><tspan y="211" fill="#00b9ff">knowledge</tspan><tspan y="211" xml:space="preserve">: [    </tspan><tspan x="0" y="238" xml:space="preserve">     &apos;SQL Server&apos;,    </tspan><tspan x="0" y="265" xml:space="preserve">     &apos;MySQL&apos;,</tspan><tspan x="0" y="292" xml:space="preserve">     &apos;Python&apos;,   </tspan><tspan x="0" y="319" xml:space="preserve">     &apos;ETL&apos;,   </tspan><tspan x="0" y="346" xml:space="preserve">     &apos;Pentaho BI&apos;,    </tspan><tspan x="0" y="373" xml:space="preserve">     &apos;SSIS&apos;,   </tspan><tspan x="0" y="400" xml:space="preserve">     &apos;Data Modeling&apos;,   </tspan><tspan x="0" y="427" xml:space="preserve">     &apos;Power BI&apos;,   </tspan><tspan x="0" y="454" xml:space="preserve">     &apos;Cognos&apos;, </tspan><tspan x="0" y="481" xml:space="preserve">   ],</tspan><tspan x="0" y="508" xml:space="preserve"> };</tspan></tspan></text>
    <text id="Business_Analytics_Developer" data-name="Business Analytics Developer" transform="translate(21 98)" fill="#00b9ff" font-size="20" font-family="SegoeUI, Segoe UI"><tspan x="0" y="22">Business Analytics Developer</tspan></text>
    <text id="Pedro_Rodrigues" data-name="Pedro Rodrigues" transform="translate(21 51)" fill="#707070" font-size="20" font-family="SegoeUI, Segoe UI"><tspan x="0" y="22">Pedro Rodrigues</tspan></text>
  </g>
</svg>
